<svg xmlns="http://www.w3.org/2000/svg" version="1.1" width="512px" height="512px" style="shape-rendering:geometricPrecision; text-rendering:geometricPrecision; image-rendering:optimizeQuality; fill-rule:evenodd; clip-rule:evenodd" xmlns:xlink="http://www.w3.org/1999/xlink">
<g><path style="opacity:1" fill="#efc319" d="M 43.5,-0.5 C 154.5,-0.5 265.5,-0.5 376.5,-0.5C 380.762,1.9262 384.262,5.25954 387,9.5C 388.37,17.7637 388.87,26.097 388.5,34.5C 387.171,70.069 387.171,105.736 388.5,141.5C 388.5,152.833 388.5,164.167 388.5,175.5C 387.167,211.167 387.167,246.833 388.5,282.5C 388.5,293.833 388.5,305.167 388.5,316.5C 388.5,328.5 388.5,340.5 388.5,352.5C 387.549,353.919 387.216,355.585 387.5,357.5C 385.043,363.454 380.71,367.621 374.5,370C 264.167,370.5 153.834,370.667 43.5,370.5C 43.5,246.833 43.5,123.167 43.5,-0.5 Z"/></g>
<g><path style="opacity:0.999" fill="#c03a2b" d="M 42.5,-0.5 C 42.8333,-0.5 43.1667,-0.5 43.5,-0.5C 43.5,123.167 43.5,246.833 43.5,370.5C 19.8295,376.171 5.1628,390.837 -0.5,414.5C -0.5,290.167 -0.5,165.833 -0.5,41.5C 5.94478,19.3882 20.2781,5.3882 42.5,-0.5 Z"/></g>
<g><path style="opacity:0.993" fill="#2c577e" d="M 388.5,34.5 C 397.167,34.5 405.833,34.5 414.5,34.5C 416.948,35.4731 419.615,35.8064 422.5,35.5C 422.5,70.5 422.5,105.5 422.5,140.5C 419.615,140.194 416.948,140.527 414.5,141.5C 405.833,141.5 397.167,141.5 388.5,141.5C 387.171,105.736 387.171,70.069 388.5,34.5 Z"/></g>
<g><path style="opacity:0.99" fill="#f4eec9" d="M 423.5,34.5 C 438.167,34.5 452.833,34.5 467.5,34.5C 467.5,70.1667 467.5,105.833 467.5,141.5C 452.833,141.5 438.167,141.5 423.5,141.5C 423.5,105.833 423.5,70.1667 423.5,34.5 Z"/></g>
<g><path style="opacity:0.999" fill="#c03a2b" d="M 467.5,34.5 C 480.504,34.3334 493.504,34.5001 506.5,35C 508.687,36.025 510.354,37.525 511.5,39.5C 511.5,71.8333 511.5,104.167 511.5,136.5C 509.66,138.168 507.66,139.668 505.5,141C 492.838,141.5 480.171,141.667 467.5,141.5C 467.5,105.833 467.5,70.1667 467.5,34.5 Z"/></g>
<g><path style="opacity:1" fill="#b0d2eb" d="M 223.5,35.5 C 217.347,49.1524 207.347,58.9857 193.5,65C 172.029,71.7674 150.029,74.934 127.5,74.5C 153.355,46.2185 185.355,33.2185 223.5,35.5 Z"/></g>
<g><path style="opacity:1" fill="#2fa8cb" d="M 223.5,35.5 C 238.896,36.3491 253.563,40.0158 267.5,46.5C 260.868,56.2951 252.201,63.7951 241.5,69C 232.293,72.1825 224.127,77.0158 217,83.5C 204.558,98.0639 206.058,110.897 221.5,122C 228.813,125.66 236.48,128.327 244.5,130C 261.333,136.495 268.166,148.662 265,166.5C 262.803,175.757 259.803,184.757 256,193.5C 252.894,201.25 252.894,208.917 256,216.5C 261.888,224.128 269.388,226.295 278.5,223C 282.243,221.864 285.91,220.53 289.5,219C 296.903,213.936 304.57,209.27 312.5,205C 316.307,203.119 320.307,201.953 324.5,201.5C 315.938,222.391 302.272,239.058 283.5,251.5C 276.53,248.733 269.197,246.9 261.5,246C 233.981,241.83 209.314,248.163 187.5,265C 185.963,266.11 185.297,267.61 185.5,269.5C 173.582,266.372 162.582,261.372 152.5,254.5C 155.502,246.817 156.835,238.817 156.5,230.5C 155.226,219.862 154.726,209.196 155,198.5C 158.868,187.229 162.535,175.895 166,164.5C 168.068,154.922 164.568,148.422 155.5,145C 147.876,142.844 140.21,140.844 132.5,139C 118.122,133.13 109.455,122.63 106.5,107.5C 111.243,95.0012 118.243,84.0012 127.5,74.5C 150.029,74.934 172.029,71.7674 193.5,65C 207.347,58.9857 217.347,49.1524 223.5,35.5 Z"/></g>
<g><path style="opacity:1" fill="#628194" d="M 414.5,34.5 C 417.5,34.5 420.5,34.5 423.5,34.5C 423.5,70.1667 423.5,105.833 423.5,141.5C 420.5,141.5 417.5,141.5 414.5,141.5C 416.948,140.527 419.615,140.194 422.5,140.5C 422.5,105.5 422.5,70.5 422.5,35.5C 419.615,35.8064 416.948,35.4731 414.5,34.5 Z"/></g>
<g><path style="opacity:1" fill="#4fb96e" d="M 267.5,46.5 C 304.333,65.5207 326.499,95.5207 334,136.5C 335.526,153.742 334.193,170.742 330,187.5C 328.629,192.464 326.796,197.131 324.5,201.5C 320.307,201.953 316.307,203.119 312.5,205C 304.57,209.27 296.903,213.936 289.5,219C 285.91,220.53 282.243,221.864 278.5,223C 269.388,226.295 261.888,224.128 256,216.5C 252.894,208.917 252.894,201.25 256,193.5C 259.803,184.757 262.803,175.757 265,166.5C 268.166,148.662 261.333,136.495 244.5,130C 236.48,128.327 228.813,125.66 221.5,122C 206.058,110.897 204.558,98.0639 217,83.5C 224.127,77.0158 232.293,72.1825 241.5,69C 252.201,63.7951 260.868,56.2951 267.5,46.5 Z"/></g>
<g><path style="opacity:1" fill="#50b96e" d="M 106.5,107.5 C 109.455,122.63 118.122,133.13 132.5,139C 140.21,140.844 147.876,142.844 155.5,145C 164.568,148.422 168.068,154.922 166,164.5C 162.535,175.895 158.868,187.229 155,198.5C 154.726,209.196 155.226,219.862 156.5,230.5C 156.835,238.817 155.502,246.817 152.5,254.5C 119.6,233.69 101.1,203.69 97,164.5C 95.2294,144.541 98.3961,125.541 106.5,107.5 Z"/></g>
<g><path style="opacity:0.989" fill="#f4eec9" d="M 388.5,175.5 C 427.501,175.333 466.501,175.5 505.5,176C 508.146,176.804 510.146,178.304 511.5,180.5C 511.5,212.833 511.5,245.167 511.5,277.5C 510.146,279.696 508.146,281.196 505.5,282C 466.501,282.5 427.501,282.667 388.5,282.5C 387.167,246.833 387.167,211.167 388.5,175.5 Z"/></g>
<g><path style="opacity:1" fill="#c03c2d" d="M 444.5,211.5 C 460.178,210.679 467.678,218.012 467,233.5C 460.828,246.422 451.328,249.589 438.5,243C 432.885,237.25 431.052,230.417 433,222.5C 435.412,217.252 439.246,213.586 444.5,211.5 Z"/></g>
<g><path style="opacity:1" fill="#b0d2ec" d="M 283.5,251.5 C 257.744,269.51 229.078,276.343 197.5,272C 193.486,271.163 189.486,270.329 185.5,269.5C 185.297,267.61 185.963,266.11 187.5,265C 209.314,248.163 233.981,241.83 261.5,246C 269.197,246.9 276.53,248.733 283.5,251.5 Z"/></g>
<g><path style="opacity:1" fill="#f19c1e" d="M 137.5,299.5 C 189.501,299.333 241.501,299.5 293.5,300C 299.544,302.932 301.044,307.432 298,313.5C 296.786,315.049 295.286,316.215 293.5,317C 241.5,317.667 189.5,317.667 137.5,317C 132.335,313.279 131.168,308.446 134,302.5C 135.518,301.837 136.685,300.837 137.5,299.5 Z"/></g>
<g><path style="opacity:0.999" fill="#383f4a" d="M 388.5,316.5 C 427.168,316.333 465.835,316.5 504.5,317C 507.233,317.904 509.567,319.404 511.5,321.5C 511.5,331.833 511.5,342.167 511.5,352.5C 470.5,352.5 429.5,352.5 388.5,352.5C 388.5,340.5 388.5,328.5 388.5,316.5 Z"/></g>
<g><path style="opacity:1" fill="#bf3a2b" d="M 388.5,352.5 C 429.5,352.5 470.5,352.5 511.5,352.5C 511.5,364.167 511.5,375.833 511.5,387.5C 463.5,387.5 415.5,387.5 367.5,387.5C 381.622,382.675 388.289,372.675 387.5,357.5C 387.216,355.585 387.549,353.919 388.5,352.5 Z"/></g>
<g><path style="opacity:0.996" fill="#e54c3c" d="M 387.5,357.5 C 388.289,372.675 381.622,382.675 367.5,387.5C 359.167,387.5 350.833,387.5 342.5,387.5C 242.79,387.009 143.123,387.509 43.5,389C 24.2568,395.64 15.7568,409.14 18,429.5C 22.1667,444.333 31.6667,453.833 46.5,458C 57.1615,458.5 67.8281,458.667 78.5,458.5C 78.5,464.5 78.5,470.5 78.5,476.5C 67.8281,476.667 57.1615,476.5 46.5,476C 21.6259,471.288 5.95927,456.788 -0.5,432.5C -0.5,426.5 -0.5,420.5 -0.5,414.5C 5.1628,390.837 19.8295,376.171 43.5,370.5C 153.834,370.667 264.167,370.5 374.5,370C 380.71,367.621 385.043,363.454 387.5,357.5 Z"/></g>
<g><path style="opacity:1" fill="#f4edc8" d="M 342.5,387.5 C 337.05,399.079 334.716,411.079 335.5,423.5C 335.624,435.791 338.29,447.458 343.5,458.5C 278.833,458.5 214.167,458.5 149.5,458.5C 149.5,449.833 149.5,441.167 149.5,432.5C 164.837,432.667 180.17,432.5 195.5,432C 201.25,429.777 203.416,425.61 202,419.5C 200.833,418.333 199.667,417.167 198.5,416C 171.918,414.842 145.252,414.342 118.5,414.5C 92.5,414.667 66.5,414.833 40.5,415C 32.3557,421.002 32.689,426.668 41.5,432C 53.8288,432.5 66.1622,432.667 78.5,432.5C 78.5,441.167 78.5,449.833 78.5,458.5C 67.8281,458.667 57.1615,458.5 46.5,458C 31.6667,453.833 22.1667,444.333 18,429.5C 15.7568,409.14 24.2568,395.64 43.5,389C 143.123,387.509 242.79,387.009 342.5,387.5 Z"/></g>
<g><path style="opacity:0.994" fill="#efc219" d="M 342.5,387.5 C 350.833,387.5 359.167,387.5 367.5,387.5C 415.5,387.5 463.5,387.5 511.5,387.5C 511.5,397.833 511.5,408.167 511.5,418.5C 510.354,420.475 508.687,421.975 506.5,423C 467.168,423.5 427.835,423.667 388.5,423.5C 382.5,423.5 376.5,423.5 370.5,423.5C 358.833,423.5 347.167,423.5 335.5,423.5C 334.716,411.079 337.05,399.079 342.5,387.5 Z"/></g>
<g><path style="opacity:1" fill="#cbb393" d="M 149.5,432.5 C 149.5,429.5 149.5,426.5 149.5,423.5C 126.006,422.502 102.339,422.169 78.5,422.5C 78.5,425.833 78.5,429.167 78.5,432.5C 66.1622,432.667 53.8288,432.5 41.5,432C 32.689,426.668 32.3557,421.002 40.5,415C 66.5,414.833 92.5,414.667 118.5,414.5C 145.252,414.342 171.918,414.842 198.5,416C 199.667,417.167 200.833,418.333 202,419.5C 203.416,425.61 201.25,429.777 195.5,432C 180.17,432.5 164.837,432.667 149.5,432.5 Z"/></g>
<g><path style="opacity:1" fill="#ca8f74" d="M 149.5,423.5 C 126.167,423.5 102.833,423.5 79.5,423.5C 79.8283,435.345 79.4949,447.012 78.5,458.5C 78.5,449.833 78.5,441.167 78.5,432.5C 78.5,429.167 78.5,425.833 78.5,422.5C 102.339,422.169 126.006,422.502 149.5,423.5 Z"/></g>
<g><path style="opacity:0.996" fill="#c03a2b" d="M 149.5,423.5 C 149.5,426.5 149.5,429.5 149.5,432.5C 149.5,441.167 149.5,449.833 149.5,458.5C 149.177,464.69 149.51,470.69 150.5,476.5C 150.899,486.898 150.399,497.232 149,507.5C 147.624,508.705 146.458,510.038 145.5,511.5C 142.5,511.5 139.5,511.5 136.5,511.5C 129.398,507.2 121.898,503.533 114,500.5C 106.553,503.806 99.3867,507.472 92.5,511.5C 89.5,511.5 86.5,511.5 83.5,511.5C 81.3041,510.146 79.8041,508.146 79,505.5C 78.5002,495.839 78.3335,486.172 78.5,476.5C 78.5,470.5 78.5,464.5 78.5,458.5C 79.4949,447.012 79.8283,435.345 79.5,423.5C 102.833,423.5 126.167,423.5 149.5,423.5 Z"/></g>
<g><path style="opacity:1" fill="#b18f46" d="M 335.5,423.5 C 347.167,423.5 358.833,423.5 370.5,423.5C 370.926,433.912 370.426,444.246 369,454.5C 367.681,456.487 365.848,457.654 363.5,458C 356.842,458.5 350.175,458.666 343.5,458.5C 338.29,447.458 335.624,435.791 335.5,423.5 Z"/></g>
<g><path style="opacity:0.985" fill="#e54d3c" d="M 370.5,423.5 C 376.5,423.5 382.5,423.5 388.5,423.5C 388.666,433.839 388.5,444.172 388,454.5C 385.612,465.888 378.779,473.055 367.5,476C 295.167,476.5 222.834,476.667 150.5,476.5C 149.51,470.69 149.177,464.69 149.5,458.5C 214.167,458.5 278.833,458.5 343.5,458.5C 350.175,458.666 356.842,458.5 363.5,458C 365.848,457.654 367.681,456.487 369,454.5C 370.426,444.246 370.926,433.912 370.5,423.5 Z"/></g>
</svg>