<svg xmlns="http://www.w3.org/2000/svg" width="512" height="512" style="shape-rendering:geometricPrecision;text-rendering:geometricPrecision;image-rendering:optimizeQuality;fill-rule:evenodd;clip-rule:evenodd"><path style="opacity:.998" fill="#2492ff" d="M132.5-.5h246c75.331 13.331 119.665 57.665 133 133v246c-13.335 75.335-57.669 119.669-133 133h-246c-74.874-13.208-119.208-57.208-133-132v-248c13.792-74.792 58.126-118.793 133-132Z"/><path style="opacity:1" fill="#e1efff" d="M168.5 137.5c-23.506-.331-46.839.002-70 1-.543-.06-.876-.393-1-1 23.83-1.329 47.497-1.329 71 0ZM342.5 137.5c23.503-1.329 47.17-1.329 71 0-.124.607-.457.94-1 1a1225.063 1225.063 0 0 0-70-1Z"/><path style="opacity:1" fill="#fefeff" d="M342.5 137.5c23.506-.331 46.839.002 70 1a22322.866 22322.866 0 0 1-55 236h-63a4687.457 4687.457 0 0 0-38.5-139 12.804 12.804 0 0 0-3 6c-12.184 44.356-24.35 88.689-36.5 133h-63a22285.843 22285.843 0 0 1-55-236 1225.063 1225.063 0 0 1 70-1 15540.29 15540.29 0 0 1 23.5 141 21848.338 21848.338 0 0 1 37.5-141 338.584 338.584 0 0 1 52 0 6283.002 6283.002 0 0 0 37 136l24-136Z"/></svg>