<svg aria-hidden="true" style="position: absolute; width: 0; height: 0; overflow: hidden;" version="1.1" xmlns="http://www.w3.org/2000/svg" xmlns:xlink="http://www.w3.org/1999/xlink">
<defs>
<symbol id="icon-circle-right" viewBox="0 0 32 32">
<path d="M16 0c-8.837 0-16 7.163-16 16s7.163 16 16 16 16-7.163 16-16-7.163-16-16-16zM16 29c-7.18 0-13-5.82-13-13s5.82-13 13-13 13 5.82 13 13-5.82 13-13 13z"></path>
<path d="M11.086 22.086l2.829 2.829 8.914-8.914-8.914-8.914-2.828 2.828 6.086 6.086z"></path>
</symbol>
<symbol id="icon-loop" viewBox="0 0 32 32">
<path d="M4 10h20v6l8-8-8-8v6h-24v12h4zM28 22h-20v-6l-8 8 8 8v-6h24v-12h-4z"></path>
</symbol>
<symbol id="icon-cross" viewBox="0 0 32 32">
<path d="M31.708 25.708c-0-0-0-0-0-0l-9.708-9.708 9.708-9.708c0-0 0-0 0-0 0.105-0.105 0.18-0.227 0.229-0.357 0.133-0.356 0.057-0.771-0.229-1.057l-4.586-4.586c-0.286-0.286-0.702-0.361-1.057-0.229-0.13 0.048-0.252 0.124-0.357 0.228 0 0-0 0-0 0l-9.708 9.708-9.708-9.708c-0-0-0-0-0-0-0.105-0.104-0.227-0.18-0.357-0.228-0.356-0.133-0.771-0.057-1.057 0.229l-4.586 4.586c-0.286 0.286-0.361 0.702-0.229 1.057 0.049 0.13 0.124 0.252 0.229 0.357 0 0 0 0 0 0l9.708 9.708-9.708 9.708c-0 0-0 0-0 0-0.104 0.105-0.18 0.227-0.229 0.357-0.133 0.355-0.057 0.771 0.229 1.057l4.586 4.586c0.286 0.286 0.702 0.361 1.057 0.229 0.13-0.049 0.252-0.124 0.357-0.229 0-0 0-0 0-0l9.708-9.708 9.708 9.708c0 0 0 0 0 0 0.105 0.105 0.227 0.18 0.357 0.229 0.356 0.133 0.771 0.057 1.057-0.229l4.586-4.586c0.286-0.286 0.362-0.702 0.229-1.057-0.049-0.13-0.124-0.252-0.229-0.357z"></path>
</symbol>
<symbol id="icon-again" viewBox="0 0 32 32">
<path fill="#7dd53d" style="fill: var(--color1, #7dd53d)" d="M30.469 12.906c-2.032-2.041-4.089-4.129-6.137-6.226l-0.176-0.181c-3.587-2.9-7.608-3.713-12.063-2.438-4.503 1.649-7.305 4.805-8.406 9.469-0.14 0.671-0.221 1.441-0.221 2.231 0 0.073 0.001 0.145 0.002 0.218l-0-0.011c-1.188-0.115-1.813-0.771-1.875-1.969 0.674-4.419 2.861-7.857 6.563-10.313 4.243-2.523 8.681-2.919 13.313-1.188 2.373 1.004 4.363 2.515 5.969 4.531l0.063-3c0.341-0.874 0.977-1.218 1.906-1.031 0.51 0.177 0.854 0.521 1.031 1.031 0.031 2.958 0.042 5.917 0.031 8.875z"></path>
<path fill="#5eac24" style="fill: var(--color2, #5eac24)" opacity="0.994" d="M30.469 12.906c-1.479 0.042-2.969 0.063-4.469 0.063-0.163 0.001-0.356 0.002-0.548 0.002-1.445 0-2.881-0.035-4.309-0.103l0.201 0.008c-0.909-0.553-1.128-1.313-0.656-2.281 0.213-0.297 0.495-0.495 0.844-0.594l3-0.063c-2.985-3.808-6.839-5.141-11.563-4-3.293 1.085-5.575 3.241-6.844 6.469-0.206 0.595-0.401 1.329-0.546 2.082l-0.017 0.106c-0.374 0.946-1.072 1.404-2.094 1.375-0.001-0.062-0.002-0.134-0.002-0.207 0-0.789 0.080-1.56 0.233-2.304l-0.013 0.073c1.101-4.664 3.903-7.82 8.406-9.469 4.454-1.275 8.475-0.463 12.063 2.438 2.223 2.278 4.281 4.365 6.348 6.442l-0.036-0.036zM28.594 15.969c-0.146 2.407-0.844 4.657-2.094 6.75-2.746 3.972-6.548 5.878-11.406 5.719-2.806-0.206-5.264-1.226-7.375-3.063-2.202-2.256-4.239-4.323-6.285-6.379l0.036 0.036c1.479-0.042 2.969-0.063 4.469-0.063 0.163-0.001 0.356-0.002 0.548-0.002 1.445 0 2.881 0.035 4.309 0.103l-0.201-0.008c0.909 0.553 1.128 1.313 0.656 2.281-0.213 0.297-0.495 0.495-0.844 0.594l-3 0.063c3.004 3.821 6.879 5.154 11.625 4 4.151-1.435 6.599-4.32 7.344-8.656 0.404-1.022 1.144-1.481 2.219-1.375z"></path>
<path fill="#7dd53d" style="fill: var(--color1, #7dd53d)" d="M28.594 15.969c0.939 0.116 1.512 0.637 1.719 1.563-0.044 1.364-0.336 2.676-0.875 3.938-2.239 5.029-6.083 7.998-11.531 8.906-5.454 0.544-9.923-1.279-13.406-5.469l-0.063 3c-0.341 0.874-0.977 1.218-1.906 1.031-0.51-0.177-0.854-0.521-1.031-1.031-0.031-2.958-0.042-5.917-0.031-8.875 2.011 2.021 4.048 4.088 6.075 6.164l0.175 0.18c2.111 1.836 4.569 2.857 7.375 3.063 4.859 0.159 8.661-1.747 11.406-5.719 1.25-2.093 1.948-4.343 2.094-6.75z"></path>
</symbol>
<symbol id="icon-exit" viewBox="0 0 32 32">
<path fill="#ce181f" style="fill: var(--color3, #ce181f)" d="M18.469 8.469v-5h-15v25h15v-5h2v7h-19v-29h19v7h-2z"></path>
<path fill="#ec1c23" style="fill: var(--color4, #ec1c23)" d="M18.469 8.469h-2v-3h-11v21h11v-3h2v5h-15v-25h15v5z"></path>
<path fill="#ed1c23" style="fill: var(--color5, #ed1c23)" opacity="0.995" d="M30.469 15.969h-22c-0.044-0.578-0.068-1.251-0.068-1.93 0-0.2 0.002-0.4 0.006-0.599l-0.001 0.030c5.167 0.009 10.334-0.012 15.5-0.063-0.010-1.167 0-2.334 0.031-3.5 2.362 2.091 4.49 4.070 6.568 6.098l-0.037-0.036z"></path>
<path fill="#cf1820" style="fill: var(--color6, #cf1820)" d="M8.469 15.969h22c-2.143 1.997-4.289 3.997-6.438 6-0.045-0.784-0.070-1.702-0.070-2.625 0-0.308 0.003-0.615 0.008-0.921l-0.001 0.046c-5.167 0.040-10.333 0.060-15.5 0.063v-2.563z"></path>
</symbol>
<symbol id="icon-letter-w" viewBox="0 0 32 32">
<path fill="#2492ff" style="fill: var(--color1, #2492ff)" opacity="0.998" d="M8.281-0.031c5.125 0 10.25 0 15.375 0 4.708 0.833 7.479 3.604 8.313 8.313 0 5.125 0 10.25 0 15.375-0.833 4.708-3.604 7.479-8.313 8.313-5.125 0-10.25 0-15.375 0-4.68-0.826-7.45-3.575-8.313-8.25 0-5.167 0-10.333 0-15.5 0.862-4.675 3.633-7.425 8.313-8.25z"></path>
<path fill="#e1efff" style="fill: var(--color2, #e1efff)" d="M10.531 8.594c-1.469-0.021-2.927 0-4.375 0.063-0.034-0.004-0.055-0.025-0.063-0.063 1.489-0.083 2.969-0.083 4.438 0z"></path>
<path fill="#e1efff" style="fill: var(--color2, #e1efff)" d="M21.406 8.594c1.469-0.083 2.948-0.083 4.438 0-0.008 0.038-0.029 0.059-0.063 0.063-1.448-0.062-2.906-0.083-4.375-0.063z"></path>
<path fill="#fefeff" style="fill: var(--color3, #fefeff)" d="M21.406 8.594c1.469-0.021 2.927 0 4.375 0.063-1.119 4.922-2.265 9.839-3.438 14.75-1.313 0-2.625 0-3.938 0-0.757-2.908-1.559-5.803-2.406-8.688-0.095 0.108-0.158 0.233-0.188 0.375-0.761 2.772-1.522 5.543-2.281 8.313-1.313 0-2.625 0-3.938 0-1.173-4.91-2.318-9.827-3.438-14.75 1.448-0.062 2.906-0.083 4.375-0.063 0.503 2.932 0.992 5.87 1.469 8.813 0.772-2.941 1.553-5.878 2.344-8.813 1.083-0.083 2.167-0.083 3.25 0 0.739 2.843 1.51 5.677 2.313 8.5 0.5-2.836 1-5.669 1.5-8.5z"></path>
</symbol>
<symbol id="icon-arrow-left" viewBox="0 0 32 32">
<path d="M12.586 27.414l-10-10c-0.781-0.781-0.781-2.047 0-2.828l10-10c0.781-0.781 2.047-0.781 2.828 0s0.781 2.047 0 2.828l-6.586 6.586h19.172c1.105 0 2 0.895 2 2s-0.895 2-2 2h-19.172l6.586 6.586c0.39 0.39 0.586 0.902 0.586 1.414s-0.195 1.024-0.586 1.414c-0.781 0.781-2.047 0.781-2.828 0z"></path>
</symbol>
<symbol id="icon-arrow-right" viewBox="0 0 32 32">
<path d="M19.414 27.414l10-10c0.781-0.781 0.781-2.047 0-2.828l-10-10c-0.781-0.781-2.047-0.781-2.828 0s-0.781 2.047 0 2.828l6.586 6.586h-19.172c-1.105 0-2 0.895-2 2s0.895 2 2 2h19.172l-6.586 6.586c-0.39 0.39-0.586 0.902-0.586 1.414s0.195 1.024 0.586 1.414c0.781 0.781 2.047 0.781 2.828 0z"></path>
</symbol>
<symbol id="icon-delete" viewBox="0 0 32 32">
<path d="M13.44 0c-1.053 0-1.92 0.868-1.92 1.92v1.28h-5c-0.080-0.015-0.16-0.015-0.24 0h-1.16c-0.020 0-0.040 0-0.060 0-0.353 0.018-0.628 0.317-0.61 0.67s0.317 0.628 0.67 0.61h0.7l2.3 25.92c0.080 0.895 0.842 1.6 1.74 1.6h12.28c0.898 0 1.66-0.705 1.74-1.6l2.3-25.92h0.7c0.23 0.003 0.445-0.117 0.563-0.317 0.115-0.2 0.115-0.445 0-0.645-0.117-0.2-0.332-0.32-0.563-0.317h-6.4v-1.28c0-1.052-0.867-1.92-1.92-1.92zM13.44 1.28h5.12c0.36 0 0.64 0.28 0.64 0.64v1.28h-6.4v-1.28c0-0.36 0.28-0.64 0.64-0.64zM7.1 4.48h17.8l-2.3 25.82c-0.020 0.223-0.258 0.42-0.46 0.42h-12.28c-0.203 0-0.44-0.198-0.46-0.42zM12.1 6.38c-0.027 0.005-0.055 0.013-0.080 0.020-0.297 0.067-0.508 0.335-0.5 0.64v21.12c-0.002 0.23 0.117 0.445 0.318 0.563 0.2 0.115 0.445 0.115 0.645 0 0.2-0.117 0.32-0.332 0.318-0.563v-21.12c0.008-0.185-0.068-0.362-0.2-0.487-0.135-0.128-0.318-0.19-0.5-0.173zM15.94 6.38c-0.027 0.005-0.055 0.013-0.080 0.020-0.297 0.067-0.508 0.335-0.5 0.64v21.12c-0.002 0.23 0.117 0.445 0.318 0.563 0.2 0.115 0.445 0.115 0.645 0 0.2-0.117 0.32-0.332 0.317-0.563v-21.12c0.008-0.185-0.067-0.362-0.2-0.487-0.135-0.128-0.317-0.19-0.5-0.173zM19.78 6.38c-0.027 0.005-0.055 0.013-0.080 0.020-0.297 0.067-0.508 0.335-0.5 0.64v21.12c-0.003 0.23 0.117 0.445 0.317 0.563 0.2 0.115 0.445 0.115 0.645 0 0.2-0.117 0.32-0.332 0.317-0.563v-21.12c0.008-0.185-0.067-0.362-0.2-0.487-0.135-0.128-0.317-0.19-0.5-0.173z"></path>
</symbol>
</defs>
</svg>
